<svg data-v-0dd9719b="" version="1.0" xmlns="http://www.w3.org/2000/svg" xmlns:xlink="http://www.w3.org/1999/xlink" width="100%" height="100%" viewBox="0 0 340.000000 250.000000" preserveAspectRatio="xMidYMid meet" color-interpolation-filters="sRGB" style="margin: auto;"> <rect data-v-0dd9719b="" x="0" y="0" width="100%" height="100%" fill="#fff" fill-opacity="1" class="background"></rect> <rect data-v-0dd9719b="" x="0" y="0" width="100%" height="100%" fill="url(#watermark)" fill-opacity="1" class="watermarklayer"></rect> <g data-v-0dd9719b="" fill="#333" class="icon-text-wrapper icon-svg-group iconsvg" transform="translate(46.599998474121094,90.35916519165039)"><g class="iconsvg-imagesvg" transform="translate(0,0)"><g><rect fill="#333" fill-opacity="0" stroke-width="2" x="0" y="0" width="60.00000000000001" height="69.28166460746165" class="image-rect"></rect> <svg x="0" y="0" width="60.00000000000001" height="69.28166460746165" filtersec="colorsb943497516" class="image-svg-svg primary" style="overflow: visible;"><svg xmlns="http://www.w3.org/2000/svg" viewBox="0 0 58.5 67.55000305175781"><defs><linearGradient id="aa047517d-c2bb-4b08-9c7e-92c4e7e30ff9" x1="13.13" y1="33.99" x2="31.05" y2="65.04" gradientUnits="userSpaceOnUse"><stop offset="0" stop-color="#862990"></stop><stop offset="1" stop-color="#ed1162"></stop></linearGradient><linearGradient id="b92f24798-164b-4ea2-8422-b6d4383a57a7" x1="37.64" y1="47.38" x2="53.54" y2="19.84" gradientUnits="userSpaceOnUse"><stop offset="0" stop-color="#256395"></stop><stop offset="1" stop-color="#19c3f0"></stop></linearGradient><linearGradient id="cecc64005-0e28-4c7e-ac06-d7ef3823ae46" x1="38.58" y1="19.7" x2="1.59" y2="19.7" gradientUnits="userSpaceOnUse"><stop offset="0" stop-color="#f2652c"></stop><stop offset="1" stop-color="#ffcb11"></stop></linearGradient></defs><title>资源 27</title><g fill-rule="evenodd"><path fill="url(#aa047517d-c2bb-4b08-9c7e-92c4e7e30ff9)" d="M0 39.4v11.26l29.25 16.89 19.5-11.26L19.5 39.4V28.14L0 39.4z"></path><path fill="url(#b92f24798-164b-4ea2-8422-b6d4383a57a7)" d="M48.75 56.29l9.75-5.63V16.89L39 5.63V39.4l-9.75 5.63 19.5 11.26z"></path><path fill="url(#cecc64005-0e28-4c7e-ac06-d7ef3823ae46)" d="M39 5.63L29.25 0 0 16.89V39.4l29.25-16.88L39 28.14V5.63z"></path></g></svg></svg> <!----></g></g> <g transform="translate(67,20.420835494995117)"><g data-gra="path-name" fill-rule="" class="tp-name iconsvg-namesvg"><g transform="scale(1)"><g><path d="M23.28-6.82L23.28-6.82Q23.28-5.23 22.7-4.08 22.11-2.93 21.14-2.13 20.16-1.32 18.89-0.81 17.61-0.31 16.23-0.02 14.85 0.27 13.46 0.36 12.07 0.46 10.87 0.46L10.87 0.46Q9.68 0.46 8.4 0.37 7.13 0.29 5.86 0.08 4.6-0.13 3.37-0.49 2.15-0.84 1.05-1.38L1.05-1.38 1.02-26.06Q2.09-26.5 3.3-26.86 4.5-27.21 5.76-27.45 7.01-27.69 8.26-27.82 9.5-27.94 10.67-27.94L10.67-27.94Q12.03-27.94 13.42-27.77 14.81-27.6 16.1-27.19 17.38-26.79 18.49-26.15 19.6-25.51 20.44-24.57 21.27-23.63 21.74-22.38 22.21-21.14 22.21-19.51L22.21-19.51Q22.21-18.44 21.9-17.5 21.6-16.56 21.02-15.81 20.45-15.06 19.62-14.54 18.8-14.01 17.76-13.76L17.76-13.76Q19.01-13.43 20.04-12.8 21.06-12.17 21.78-11.27 22.5-10.37 22.89-9.24 23.28-8.11 23.28-6.82ZM13.55-17.75L13.55-17.75Q13.55-18.3 13.32-18.69 13.09-19.09 12.75-19.34 12.42-19.58 12.02-19.7 11.63-19.81 11.33-19.81L11.33-19.81Q10.94-19.81 10.58-19.7 10.21-19.58 9.87-19.43L9.87-19.43 9.75-15.18Q10.19-15.18 10.85-15.25 11.5-15.33 12.1-15.59 12.71-15.85 13.13-16.36 13.55-16.86 13.55-17.75ZM10.83-11.5L10.83-11.5Q10.27-11.5 9.75-11.38L9.75-11.38 9.68-7.01Q9.96-6.96 10.24-6.91 10.52-6.86 10.79-6.86L10.79-6.86Q11.19-6.86 11.67-6.95 12.15-7.03 12.57-7.29 12.99-7.55 13.27-7.99 13.55-8.43 13.55-9.16L13.55-9.16Q13.55-9.89 13.27-10.35 12.99-10.81 12.59-11.07 12.19-11.33 11.71-11.41 11.23-11.5 10.83-11.5ZM24.11-26.45L34.3-26.98 32.96-0.88 24.87-0.46 24.11-26.45ZM59.64-9.7L59.64-9.7Q59.64-7.53 59.59-5.41 59.54-3.3 59.44-1.15L59.44-1.15 48.41-1.34Q48.98-4.73 49.4-8.12 49.82-11.5 49.82-14.95L49.82-14.95Q49.82-15.2 49.81-15.75 49.79-16.31 49.73-17.01 49.67-17.71 49.57-18.44 49.46-19.18 49.28-19.8 49.1-20.41 48.84-20.8 48.58-21.19 48.21-21.19L48.21-21.19Q47.56-21.19 47.11-20.81 46.66-20.43 46.37-19.82 46.07-19.22 45.9-18.47 45.72-17.73 45.64-16.98 45.55-16.23 45.52-15.57 45.49-14.91 45.49-14.49L45.49-14.49Q45.4-11.1 45.34-7.75 45.28-4.41 45.19-1L45.19-1 35.41-0.57Q35.8-7.34 36.15-14.03 36.51-20.72 36.72-27.48L36.72-27.48 45.76-27.94 45.69-24.87Q46.22-25.53 46.84-26.1 47.47-26.68 48.18-27.09 48.89-27.5 49.68-27.74 50.48-27.98 51.36-27.98L51.36-27.98Q52.99-27.98 54.21-27.44 55.44-26.91 56.32-25.99 57.2-25.07 57.8-23.81 58.39-22.56 58.75-21.14 59.12-19.72 59.31-18.18 59.5-16.63 59.57-15.14 59.64-13.64 59.64-12.25 59.64-10.85 59.64-9.7ZM84.38-16.79L84.61-4.29Q83.7-3.16 82.38-2.32 81.06-1.48 79.55-0.92 78.03-0.36 76.44-0.09 74.85 0.19 73.41 0.19L73.41 0.19Q70.64 0.19 68.3-0.75 65.96-1.69 64.26-3.36 62.57-5.04 61.61-7.36 60.65-9.68 60.65-12.42L60.65-12.42Q60.65-14.51 61.13-16.48 61.61-18.45 62.5-20.18 63.39-21.9 64.68-23.34 65.96-24.78 67.59-25.81 69.22-26.85 71.16-27.41 73.11-27.98 75.29-27.98L75.29-27.98Q76.12-27.98 77.06-27.91 77.99-27.84 78.92-27.68 79.85-27.52 80.73-27.23 81.62-26.94 82.34-26.52L82.34-26.52 81.81-19.2Q80.73-19.6 79.59-19.75 78.45-19.89 77.36-19.89L77.36-19.89Q75.83-19.89 74.5-19.48 73.17-19.07 72.18-18.26 71.19-17.46 70.62-16.25 70.04-15.04 70.04-13.45L70.04-13.45Q70.04-12.46 70.31-11.53 70.58-10.6 71.12-9.88 71.67-9.16 72.48-8.72 73.3-8.28 74.37-8.28L74.37-8.28Q75.1-8.28 75.88-8.47 76.65-8.66 77.21-9.12L77.21-9.12 77.29-10.62 72.69-10.69 72.92-16.44Q75.77-16.54 78.63-16.6 81.48-16.67 84.38-16.79L84.38-16.79ZM109.75-14.68L109.75-14.68Q109.75-12.94 109.35-11.32 108.94-9.7 108.19-8.28 107.43-6.86 106.35-5.68 105.26-4.5 103.91-3.66 102.56-2.82 100.97-2.35 99.38-1.88 97.6-1.88L97.6-1.88Q95.87-1.88 94.31-2.32 92.75-2.76 91.39-3.55 90.03-4.35 88.93-5.47 87.82-6.59 87.05-7.96 86.27-9.33 85.84-10.9 85.41-12.48 85.41-14.18L85.41-14.18Q85.41-15.85 85.81-17.45 86.22-19.05 86.97-20.47 87.73-21.88 88.8-23.07 89.88-24.26 91.21-25.12 92.54-25.99 94.09-26.46 95.64-26.94 97.37-26.94L97.37-26.94Q100.15-26.94 102.44-26.08 104.73-25.22 106.35-23.62 107.97-22.02 108.86-19.75 109.75-17.48 109.75-14.68ZM101.24-14.18L101.24-14.18Q101.24-15 101-15.78 100.76-16.56 100.3-17.16 99.84-17.76 99.16-18.14 98.48-18.51 97.6-18.51L97.6-18.51Q96.7-18.51 95.99-18.19 95.28-17.86 94.77-17.29 94.26-16.73 94-15.97 93.73-15.22 93.73-14.37L93.73-14.37Q93.73-13.57 93.96-12.76 94.19-11.96 94.65-11.31 95.11-10.65 95.79-10.25 96.47-9.85 97.37-9.85L97.37-9.85Q98.27-9.85 98.99-10.2 99.71-10.56 100.2-11.16 100.7-11.77 100.97-12.55 101.24-13.34 101.24-14.18ZM133.4-6.82L133.4-6.82Q133.4-5.23 132.81-4.08 132.23-2.93 131.25-2.13 130.27-1.32 129-0.81 127.72-0.31 126.34-0.02 124.96 0.27 123.57 0.36 122.18 0.46 120.98 0.46L120.98 0.46Q119.79 0.46 118.51 0.37 117.24 0.29 115.98 0.08 114.71-0.13 113.48-0.49 112.26-0.84 111.17-1.38L111.17-1.38 111.13-26.06Q112.2-26.5 113.41-26.86 114.62-27.21 115.87-27.45 117.13-27.69 118.37-27.82 119.62-27.94 120.79-27.94L120.79-27.94Q122.15-27.94 123.54-27.77 124.92-27.6 126.21-27.19 127.49-26.79 128.6-26.15 129.72-25.51 130.55-24.57 131.38-23.63 131.85-22.38 132.32-21.14 132.32-19.51L132.32-19.51Q132.32-18.44 132.02-17.5 131.71-16.56 131.13-15.81 130.56-15.06 129.73-14.54 128.91-14.01 127.88-13.76L127.88-13.76Q129.12-13.43 130.15-12.8 131.17-12.17 131.89-11.27 132.61-10.37 133-9.24 133.4-8.11 133.4-6.82ZM123.66-17.75L123.66-17.75Q123.66-18.3 123.43-18.69 123.2-19.09 122.86-19.34 122.53-19.58 122.14-19.7 121.74-19.81 121.44-19.81L121.44-19.81Q121.05-19.81 120.69-19.7 120.33-19.58 119.98-19.43L119.98-19.43 119.87-15.18Q120.31-15.18 120.96-15.25 121.61-15.33 122.21-15.59 122.82-15.85 123.24-16.36 123.66-16.86 123.66-17.75ZM120.94-11.5L120.94-11.5Q120.38-11.5 119.87-11.38L119.87-11.38 119.79-7.01Q120.08-6.96 120.35-6.91 120.63-6.86 120.9-6.86L120.9-6.86Q121.3-6.86 121.78-6.95 122.26-7.03 122.68-7.29 123.1-7.55 123.38-7.99 123.66-8.43 123.66-9.16L123.66-9.16Q123.66-9.89 123.38-10.35 123.1-10.81 122.7-11.07 122.3-11.33 121.82-11.41 121.34-11.5 120.94-11.5ZM157.66-14.68L157.66-14.68Q157.66-12.94 157.25-11.32 156.85-9.7 156.09-8.28 155.34-6.86 154.25-5.68 153.17-4.5 151.82-3.66 150.47-2.82 148.88-2.35 147.29-1.88 145.51-1.88L145.51-1.88Q143.78-1.88 142.22-2.32 140.66-2.76 139.3-3.55 137.94-4.35 136.83-5.47 135.73-6.59 134.96-7.96 134.18-9.33 133.75-10.9 133.32-12.48 133.32-14.18L133.32-14.18Q133.32-15.85 133.72-17.45 134.12-19.05 134.88-20.47 135.64-21.88 136.71-23.07 137.78-24.26 139.12-25.12 140.45-25.99 142-26.46 143.55-26.94 145.28-26.94L145.28-26.94Q148.05-26.94 150.34-26.08 152.63-25.22 154.25-23.62 155.87-22.02 156.76-19.75 157.66-17.48 157.66-14.68ZM149.15-14.18L149.15-14.18Q149.15-15 148.91-15.78 148.67-16.56 148.21-17.16 147.75-17.76 147.07-18.14 146.39-18.51 145.51-18.51L145.51-18.51Q144.61-18.51 143.9-18.19 143.19-17.86 142.68-17.29 142.17-16.73 141.9-15.97 141.64-15.22 141.64-14.37L141.64-14.37Q141.64-13.57 141.87-12.76 142.1-11.96 142.56-11.31 143.02-10.65 143.7-10.25 144.38-9.85 145.28-9.85L145.28-9.85Q146.18-9.85 146.9-10.2 147.61-10.56 148.11-11.16 148.61-11.77 148.88-12.55 149.15-13.34 149.15-14.18ZM171.78-27.17L180.82-26.1 173.35-13.87 180.1-2.95 172.09-0.46 168.25-7.9 164.19-0.04 155.91-3.03 162.96-14.14 156.53-25.07 165.3-27.17 168.44-20.24 171.78-27.17Z" transform="translate(-1.0199999809265137, 27.979999542236328)"></path></g> <!----> <!----> <!----> <!----> <!----> <!----> <!----></g></g> <!----></g></g><defs v-gra="od"></defs></svg>